<?xml version="1.0" encoding="utf-8"?>
<!-- Generator: Adobe Illustrator 23.1.0, SVG Export Plug-In . SVG Version: 6.00 Build 0)  -->
<svg version="1.1" id="Layer_1" xmlns="http://www.w3.org/2000/svg" xmlns:xlink="http://www.w3.org/1999/xlink" x="0px" y="0px"
	 viewBox="0 0 120 120" style="enable-background:new 0 0 120 120;" xml:space="preserve">
<style type="text/css">
	.st0{fill:#17BEBB;}
	.st1{fill:none;stroke:#020305;stroke-width:2;stroke-linecap:round;stroke-linejoin:round;}
	.st2{fill:none;stroke:#656565;stroke-width:2;stroke-linecap:round;stroke-linejoin:round;}
</style>
<g id="Group_16" transform="translate(388.202 33.361)">
	<g id="Group_19" transform="translate(21)">
		<path id="Path_21" class="st0" d="M-370.28,24.02c0,0-2.34-20.92,13.55-20.92s14.22,16.1,14.22,16.1v25.3h-18.4V33.43h-6.07v-9.41
			H-370.28z"/>
		<g id="Group_15" transform="translate(529.524 934.515)">
			<path id="Path_16" class="st1" d="M-872.08-890.16v-28.01c-0.05-7.61-6.25-13.74-13.86-13.7l0,0
				c-7.61-0.04-13.82,6.09-13.86,13.7v7.75h3.18v9.16h6.21v11.09H-872.08z"/>
			<path id="Path_17" class="st1" d="M-885.25-911.88c0.05-7.61,6.25-13.74,13.86-13.7l0,0c7.61-0.04,13.82,6.09,13.86,13.7v7.75
				h-3.18v9.16h-6.21v11.09h-18.33v-6.28"/>
			<path id="Path_18" class="st1" d="M-884.05-907.85v3.12h8.39v-3.12"/>
			<path id="Path_19" class="st1" d="M-896.39-919.58c0.73-0.73,1.91-0.73,2.64,0"/>
			<path id="Path_20" class="st1" d="M-863.65-912.82c0.73-0.73,1.91-0.73,2.64,0"/>
		</g>
	</g>
</g>
<path id="Path_23" class="st2" d="M55.48,12.06L20.75,32.11c-2.8,1.62-4.52,4.6-4.52,7.83l0,40.11c0,3.23,1.72,6.22,4.52,7.83
	l34.73,20.05c2.8,1.62,6.25,1.61,9.05,0l34.73-20.05c2.8-1.62,4.52-4.6,4.52-7.83l0-40.11c0-3.23-1.72-6.22-4.52-7.83L64.52,12.06
	C61.72,10.45,58.28,10.45,55.48,12.06z"/>
</svg>
