<?xml version="1.0" encoding="utf-8"?>
<!-- Generator: Adobe Illustrator 23.1.0, SVG Export Plug-In . SVG Version: 6.00 Build 0)  -->
<svg version="1.1" id="Layer_1" xmlns="http://www.w3.org/2000/svg" xmlns:xlink="http://www.w3.org/1999/xlink" x="0px" y="0px"
	 viewBox="0 0 120 120" style="enable-background:new 0 0 120 120;" xml:space="preserve">
<style type="text/css">
	.st0{fill:none;stroke:#656565;stroke-width:2;stroke-linecap:round;stroke-linejoin:round;}
	
		.st1{opacity:0.91;fill:none;stroke:#000000;stroke-width:2;stroke-linecap:round;stroke-linejoin:round;stroke-dasharray:316,65;enable-background:new    ;}
	.st2{fill:#17BEBB;}
	.st3{fill:none;stroke:#000000;stroke-width:2;stroke-linecap:round;stroke-linejoin:round;}
	.st4{fill:none;stroke:#000000;stroke-width:2;stroke-linecap:round;}
</style>
<path id="Path_24" class="st0" d="M55.48,12.06L20.75,32.11c-2.8,1.62-4.52,4.6-4.52,7.83l0,40.11c0,3.23,1.72,6.22,4.52,7.83
	l34.73,20.05c2.8,1.62,6.25,1.61,9.05,0l34.73-20.05c2.8-1.62,4.52-4.6,4.52-7.83l0-40.11c0-3.23-1.72-6.22-4.52-7.83L64.52,12.06
	C61.72,10.45,58.28,10.45,55.48,12.06z"/>
<g id="Group_18" transform="translate(1280.014 781.069)">
	<circle id="Ellipse_81" class="st1" cx="-1220.01" cy="-721.07" r="24"/>
	<circle id="Ellipse_82" class="st2" cx="-1220.01" cy="-721.07" r="5.46"/>
	<circle id="Ellipse_83" class="st3" cx="-1219.97" cy="-721.06" r="12.41"/>
</g>
<g>
	<path id="Path_28" class="st4" d="M73.29,60h2.79"/>
	<path id="Path_30" class="st4" d="M60.42,72.87v2.79"/>
	<path id="Path_31" class="st4" d="M60.42,44.34v2.79"/>
	<path id="Path_29" class="st4" d="M43.92,60h2.79"/>
</g>
</svg>
