<?xml version="1.0" encoding="utf-8"?>
<!-- Generator: Adobe Illustrator 23.1.0, SVG Export Plug-In . SVG Version: 6.00 Build 0)  -->
<svg version="1.1" id="Layer_1" xmlns="http://www.w3.org/2000/svg" xmlns:xlink="http://www.w3.org/1999/xlink" x="0px" y="0px"
	 viewBox="0 0 120 120" style="enable-background:new 0 0 120 120;" xml:space="preserve">
<style type="text/css">
	.st0{fill:none;stroke:#656565;stroke-width:2;stroke-linecap:round;stroke-linejoin:round;}
	.st1{fill:#17BEBB;stroke:#000000;stroke-width:2;stroke-miterlimit:10;}
	.st2{fill:none;stroke:#000000;stroke-width:2;stroke-miterlimit:10;}
	.st3{fill:#17BEBB;stroke:#17BEBB;stroke-width:2;stroke-miterlimit:10;}
	.st4{fill:none;stroke:#17BEBB;stroke-width:2;stroke-miterlimit:10;}
</style>
<g>
	<path id="Path_22" class="st0" d="M55.22,11.63L20.49,31.68c-2.8,1.62-4.52,4.6-4.52,7.83l0,40.11c0,3.23,1.72,6.22,4.52,7.83
		l34.73,20.05c2.8,1.62,6.25,1.61,9.05,0L99,87.45c2.8-1.62,4.52-4.6,4.52-7.83l0-40.11c0-3.23-1.72-6.22-4.52-7.83L64.26,11.63
		C61.47,10.01,58.02,10.01,55.22,11.63z"/>
	<g id="Group_17" transform="translate(468.539 705.53)">
		<circle id="Ellipse_78" class="st1" cx="-423.37" cy="-654.78" r="4.92"/>
		<circle id="Ellipse_79" class="st1" cx="-394.06" cy="-654.78" r="4.92"/>
		<circle id="Ellipse_80" class="st1" cx="-408.72" cy="-655.79" r="5.91"/>
		<path id="Path_25" class="st2" d="M-419.66-644.98c-6.08-2.18-12.77,0.98-14.95,7.05c-0.45,1.26-0.69,2.6-0.69,3.94h14.9
			c-0.06-6.45,5.12-11.73,11.57-11.79s11.73,5.12,11.79,11.57c0,0.07,0,0.14,0,0.22h14.66c0-6.46-5.24-11.69-11.7-11.68
			c-1.34,0-2.68,0.23-3.94,0.69"/>
		<path id="Path_26" class="st2" d="M-397.51-630.61L-397.51-630.61z"/>
		<path id="Path_27" class="st3" d="M-397.51-628.61L-397.51-628.61z"/>
	</g>
	<line class="st2" x1="49.12" y1="74.92" x2="71.03" y2="74.92"/>
	<line class="st4" x1="49.12" y1="76.92" x2="71.03" y2="76.92"/>
</g>
</svg>
